<svg width="71" height="57" viewBox="0 0 71 57" fill="none" xmlns="http://www.w3.org/2000/svg">
<path d="M44.763 6.48216C44.1507 3.31726 41.2936 0.90918 38.0283 0.90918H32.6541C29.3888 0.90918 26.5317 3.31726 25.9195 6.48216C25.0351 6.75736 24.4229 7.51419 24.4229 8.47742C24.4229 9.02783 24.6269 9.50945 24.9671 9.85346C24.6269 10.1975 24.4229 10.6791 24.4229 11.2295C24.4229 12.1927 25.0351 12.9496 25.8514 13.2248C26.4637 16.4585 29.3208 18.7977 32.5861 18.7977H37.9603C41.2256 18.7977 44.0827 16.3897 44.695 13.2248C45.5113 12.9496 46.1235 12.1927 46.1235 11.2295C46.1235 10.6791 45.9194 10.1975 45.5793 9.85346C45.9194 9.50945 46.1235 9.02783 46.1235 8.47742C46.1916 7.51419 45.5793 6.75736 44.763 6.48216ZM32.6541 2.28522H38.0283C40.5453 2.28522 42.7222 4.00528 43.3344 6.41335H43.0623L42.9262 6.27575C42.5861 5.93174 42.1779 5.72533 41.6337 5.72533H41.2256C40.7494 5.72533 40.2732 5.93174 39.9331 6.27575C39.865 6.34455 39.729 6.41335 39.5929 6.41335H39.1848C39.0487 6.41335 38.9126 6.34455 38.8446 6.27575C38.5045 5.93174 38.0963 5.72533 37.5521 5.72533H37.1439C36.6677 5.72533 36.1916 5.93174 35.8514 6.27575C35.7834 6.34455 35.6473 6.41335 35.5113 6.41335H35.1031C34.9671 6.41335 34.831 6.34455 34.763 6.27575C34.4228 5.93174 34.0147 5.72533 33.4705 5.72533H33.0623C32.5861 5.72533 32.1099 5.93174 31.7698 6.27575C31.7018 6.34455 31.5657 6.41335 31.4297 6.41335H31.0215C30.8854 6.41335 30.7494 6.34455 30.6814 6.27575C30.3412 5.93174 29.9331 5.72533 29.3888 5.72533H28.9807C28.5045 5.72533 28.0283 5.93174 27.6882 6.27575L27.5521 6.41335H27.28C27.9603 4.00528 30.1371 2.28522 32.6541 2.28522ZM26.4637 7.7894H28.0963L28.6405 7.23898C28.7766 7.17018 28.9126 7.10137 28.9807 7.10137H29.3888C29.5249 7.10137 29.6609 7.17018 29.729 7.23898C30.0691 7.58299 30.5453 7.7894 31.0215 7.7894H31.4297C31.9058 7.7894 32.382 7.58299 32.7222 7.23898C32.8582 7.17018 32.9943 7.10137 33.0623 7.10137H33.4705C33.6065 7.10137 33.7426 7.17018 33.8106 7.23898C34.1507 7.58299 34.6269 7.7894 35.1031 7.7894H35.5113C35.9875 7.7894 36.4637 7.58299 36.8038 7.23898C36.9399 7.17018 37.0759 7.10137 37.1439 7.10137H37.5521C37.6882 7.10137 37.8242 7.17018 37.8922 7.23898C38.2324 7.58299 38.7086 7.7894 39.1848 7.7894H39.5929C40.0691 7.7894 40.5453 7.58299 40.8854 7.23898C41.0215 7.17018 41.1575 7.10137 41.2256 7.10137H41.6337C41.7698 7.10137 41.9058 7.17018 41.9739 7.23898L42.5181 7.7894H44.1507C44.5589 7.7894 44.831 8.0646 44.831 8.47742C44.831 8.89023 44.5589 9.16544 44.1507 9.16544H26.4637C26.0555 9.16544 25.7834 8.89023 25.7834 8.47742C25.7834 8.0646 26.1235 7.7894 26.4637 7.7894ZM38.0283 17.4217H32.6541C30.1371 17.4217 27.9603 15.7016 27.348 13.2936H43.4024C42.7222 15.7016 40.5453 17.4217 38.0283 17.4217ZM44.1507 11.9175H26.4637C26.0555 11.9175 25.7834 11.6423 25.7834 11.2295C25.7834 10.8167 26.0555 10.5415 26.4637 10.5415H44.1507C44.5589 10.5415 44.831 10.8167 44.831 11.2295C44.831 11.6423 44.5589 11.9175 44.1507 11.9175Z" fill="#E67285"/>
<path d="M20.8855 44.0481C20.2733 40.8144 17.4162 38.4751 14.1509 38.4751H8.7767C5.5114 38.4751 2.65425 40.8832 2.04201 44.0481C1.15766 44.3233 0.54541 45.0801 0.54541 46.0433C0.54541 46.5938 0.749492 47.0754 1.08963 47.4194C0.749492 47.7634 0.54541 48.245 0.54541 48.7954C0.54541 49.7586 1.15765 50.5155 1.97398 50.7907C2.58623 54.0244 5.44337 56.3637 8.70867 56.3637H14.0828C17.3481 56.3637 20.2053 53.9556 20.8175 50.7907C21.6338 50.5155 22.2461 49.7586 22.2461 48.7954C22.2461 48.245 22.042 47.7634 21.7019 47.4194C22.042 47.0754 22.2461 46.5938 22.2461 46.0433C22.3141 45.0801 21.7019 44.3233 20.8855 44.0481ZM8.7767 39.8511H14.1509C16.6679 39.8511 18.8447 41.5712 19.457 43.9793H19.1849L19.0488 43.8417C18.7087 43.4977 18.2325 43.2912 17.7563 43.2912H17.3481C16.8719 43.2912 16.3957 43.4977 16.0556 43.8417C15.9876 43.9105 15.8515 43.9793 15.7155 43.9793H15.3073C15.1713 43.9793 15.0352 43.9105 14.9672 43.8417C14.627 43.4977 14.1509 43.2912 13.6747 43.2912H13.2665C12.7903 43.2912 12.3141 43.4977 11.974 43.8417C11.906 43.9105 11.7699 43.9793 11.6338 43.9793H11.2257C11.0896 43.9793 10.9536 43.9105 10.8855 43.8417C10.5454 43.4977 10.0692 43.2912 9.59303 43.2912H9.18486C8.70867 43.2912 8.23248 43.4977 7.89235 43.8417C7.82432 43.9105 7.68827 43.9793 7.55221 43.9793H7.14405C7.00799 43.9793 6.87194 43.9105 6.80391 43.8417C6.46378 43.4977 5.98759 43.2912 5.5114 43.2912H5.10323C4.62704 43.2912 4.15085 43.4977 3.81072 43.8417L3.67466 43.9793H3.40255C4.08282 41.5712 6.2597 39.8511 8.7767 39.8511ZM2.58623 45.3553H4.21888L4.7631 44.8049C4.83112 44.7361 4.96718 44.6673 5.10323 44.6673H5.5114C5.64745 44.6673 5.7835 44.7361 5.85153 44.8049C6.19167 45.1489 6.66786 45.3553 7.14405 45.3553H7.55221C8.0284 45.3553 8.50459 45.1489 8.84473 44.8049C8.91276 44.7361 9.04881 44.6673 9.18486 44.6673H9.59303C9.72908 44.6673 9.86514 44.7361 9.93316 44.8049C10.2733 45.1489 10.7495 45.3553 11.2257 45.3553H11.6338C12.11 45.3553 12.5862 45.1489 12.9264 44.8049C12.9944 44.7361 13.1304 44.6673 13.2665 44.6673H13.6747C13.8107 44.6673 13.9468 44.7361 14.0148 44.8049C14.3549 45.1489 14.8311 45.3553 15.3073 45.3553H15.7155C16.1917 45.3553 16.6679 45.1489 17.008 44.8049C17.076 44.7361 17.2121 44.6673 17.3481 44.6673H17.7563C17.8923 44.6673 18.0284 44.7361 18.0964 44.8049L18.6406 45.3553H20.2733C20.6815 45.3553 20.9536 45.6305 20.9536 46.0433C20.9536 46.4561 20.6815 46.7314 20.2733 46.7314H2.58623C2.17806 46.7314 1.90595 46.4561 1.90595 46.0433C1.90595 45.6305 2.17806 45.3553 2.58623 45.3553ZM14.0828 54.9876H8.70867C6.19167 54.9876 4.0148 53.2676 3.40255 50.8595H19.457C18.7767 53.2676 16.5998 54.9876 14.0828 54.9876ZM20.2733 49.4834H2.58623C2.17806 49.4834 1.90595 49.2082 1.90595 48.7954C1.90595 48.3826 2.17806 48.1074 2.58623 48.1074H20.2733C20.6815 48.1074 20.9536 48.3826 20.9536 48.7954C20.9536 49.1394 20.6815 49.4834 20.2733 49.4834Z" fill="#E67285"/>
<path d="M44.9669 44.0481C44.3547 40.8144 41.4975 38.4751 38.2322 38.4751H32.8581C29.5928 38.4751 26.7356 40.8832 26.1234 44.0481C25.3071 44.3233 24.6948 45.0801 24.6948 46.0433C24.6948 46.5938 24.8989 47.0754 25.239 47.4194C24.8989 47.7634 24.6948 48.245 24.6948 48.7954C24.6948 49.7586 25.3071 50.5155 26.1234 50.7907C26.7356 54.0244 29.5928 56.3637 32.8581 56.3637H38.2322C41.4975 56.3637 44.3547 53.9556 44.9669 50.7907C45.7833 50.5155 46.3955 49.7586 46.3955 48.7954C46.3955 48.245 46.1914 47.7634 45.8513 47.4194C46.1914 47.0754 46.3955 46.5938 46.3955 46.0433C46.3955 45.0801 45.7833 44.3233 44.9669 44.0481ZM32.8581 39.8511H38.2322C40.7492 39.8511 42.9261 41.5712 43.5384 43.9793H43.2662L43.1302 43.8417C42.7901 43.4977 42.3139 43.2912 41.8377 43.2912H41.4295C40.9533 43.2912 40.4771 43.4977 40.137 43.8417C40.069 43.9105 39.9329 43.9793 39.7969 43.9793H39.3887C39.2526 43.9793 39.1166 43.9105 39.0486 43.8417C38.7084 43.4977 38.2322 43.2912 37.756 43.2912H37.3479C36.8717 43.2912 36.3955 43.4977 36.0554 43.8417C35.9873 43.9105 35.8513 43.9793 35.7152 43.9793H35.3071C35.171 43.9793 35.035 43.9105 34.9669 43.8417C34.6268 43.4977 34.1506 43.2912 33.6744 43.2912H33.2662C32.7901 43.2912 32.3139 43.4977 31.9737 43.8417C31.9057 43.9105 31.7697 43.9793 31.6336 43.9793H31.2254C31.0894 43.9793 30.9533 43.9105 30.8853 43.8417C30.5452 43.4977 30.069 43.2912 29.5928 43.2912H29.1846C28.7084 43.2912 28.2322 43.4977 27.8921 43.8417L27.756 43.9793H27.4839C28.1642 41.5712 30.3411 39.8511 32.8581 39.8511ZM26.6676 45.3553H28.3003L28.8445 44.8049C28.9125 44.7361 29.0486 44.6673 29.1846 44.6673H29.5928C29.7288 44.6673 29.8649 44.7361 29.9329 44.8049C30.2731 45.1489 30.7492 45.3553 31.2254 45.3553H31.6336C32.1098 45.3553 32.586 45.1489 32.9261 44.8049C32.9941 44.7361 33.1302 44.6673 33.2662 44.6673H33.6744C33.8105 44.6673 33.9465 44.7361 34.0146 44.8049C34.3547 45.1489 34.8309 45.3553 35.3071 45.3553H35.7152C36.1914 45.3553 36.6676 45.1489 37.0077 44.8049C37.0758 44.7361 37.2118 44.6673 37.3479 44.6673H37.756C37.8921 44.6673 38.0282 44.7361 38.0962 44.8049C38.4363 45.1489 38.9125 45.3553 39.3887 45.3553H39.7969C40.2731 45.3553 40.7492 45.1489 41.0894 44.8049C41.1574 44.7361 41.2935 44.6673 41.4295 44.6673H41.8377C41.9737 44.6673 42.1098 44.7361 42.1778 44.8049L42.722 45.3553H44.3547C44.7628 45.3553 45.035 45.6305 45.035 46.0433C45.035 46.4561 44.7628 46.7314 44.3547 46.7314H26.6676C26.2595 46.7314 25.9873 46.4561 25.9873 46.0433C25.9873 45.6305 26.3275 45.3553 26.6676 45.3553ZM38.2322 54.9876H32.8581C30.3411 54.9876 28.1642 53.2676 27.552 50.8595H43.6064C42.9261 53.2676 40.7492 54.9876 38.2322 54.9876ZM44.3547 49.4834H26.6676C26.2595 49.4834 25.9873 49.2082 25.9873 48.7954C25.9873 48.3826 26.2595 48.1074 26.6676 48.1074H44.3547C44.7628 48.1074 45.035 48.3826 45.035 48.7954C45.035 49.1394 44.7628 49.4834 44.3547 49.4834Z" fill="#E67285"/>
<path d="M69.049 44.0481C68.4367 40.8144 65.5796 38.4751 62.3143 38.4751H56.9401C53.6748 38.4751 50.8177 40.8832 50.2054 44.0481C49.3891 44.3233 48.7769 45.0801 48.7769 46.0433C48.7769 46.5938 48.9809 47.0754 49.3211 47.4194C48.9809 47.7634 48.7769 48.245 48.7769 48.7954C48.7769 49.7586 49.3891 50.5155 50.2054 50.7907C50.8177 54.0244 53.6748 56.3637 56.9401 56.3637H62.3143C65.5796 56.3637 68.4367 53.9556 69.049 50.7907C69.8653 50.5155 70.4775 49.7586 70.4775 48.7954C70.4775 48.245 70.2734 47.7634 69.9333 47.4194C70.2734 47.0754 70.4775 46.5938 70.4775 46.0433C70.5456 45.0801 69.9333 44.3233 69.049 44.0481ZM56.9401 39.8511H62.3143C64.8313 39.8511 67.0081 41.5712 67.6204 43.9793H67.3483L67.2122 43.8417C66.8721 43.4977 66.3959 43.2912 65.9197 43.2912H65.5115C65.0354 43.2912 64.5592 43.4977 64.219 43.8417C64.151 43.9105 64.0149 43.9793 63.8789 43.9793H63.4707C63.3347 43.9793 63.1986 43.9105 63.1306 43.8417C62.7905 43.4977 62.3143 43.2912 61.8381 43.2912H61.4299C60.9537 43.2912 60.4775 43.4977 60.1374 43.8417C60.0694 43.9105 59.9333 43.9793 59.7973 43.9793H59.3891C59.253 43.9793 59.117 43.9105 59.049 43.8417C58.7088 43.4977 58.2326 43.2912 57.7564 43.2912H57.3483C56.8721 43.2912 56.3959 43.4977 56.0558 43.8417C55.9877 43.9105 55.8517 43.9793 55.7156 43.9793H55.3075C55.1714 43.9793 55.0354 43.9105 54.9673 43.8417C54.6272 43.4977 54.151 43.2912 53.6748 43.2912H53.2666C52.7905 43.2912 52.3143 43.4977 51.9741 43.8417L51.8381 43.9793H51.566C52.2462 41.5712 54.4231 39.8511 56.9401 39.8511ZM50.8177 45.3553H52.4503L52.9945 44.8049C53.0626 44.7361 53.1986 44.6673 53.3347 44.6673H53.7428C53.8789 44.6673 54.0149 44.7361 54.083 44.8049C54.4231 45.1489 54.8993 45.3553 55.3755 45.3553H55.7837C56.2598 45.3553 56.736 45.1489 57.0762 44.8049C57.1442 44.7361 57.2803 44.6673 57.4163 44.6673H57.8245C57.9605 44.6673 58.0966 44.7361 58.1646 44.8049C58.5047 45.1489 58.9809 45.3553 59.4571 45.3553H59.8653C60.3415 45.3553 60.8177 45.1489 61.1578 44.8049C61.2258 44.7361 61.3619 44.6673 61.4979 44.6673H61.9061C62.0422 44.6673 62.1782 44.7361 62.2462 44.8049C62.5864 45.1489 63.0626 45.3553 63.5388 45.3553H63.9469C64.4231 45.3553 64.8993 45.1489 65.2394 44.8049C65.3075 44.7361 65.4435 44.6673 65.5796 44.6673H65.9877C66.1238 44.6673 66.2598 44.7361 66.3279 44.8049L66.8721 45.3553H68.5047C68.9129 45.3553 69.185 45.6305 69.185 46.0433C69.185 46.4561 68.9129 46.7314 68.5047 46.7314H50.8177C50.4095 46.7314 50.1374 46.4561 50.1374 46.0433C50.1374 45.6305 50.4095 45.3553 50.8177 45.3553ZM62.3143 54.9876H56.9401C54.4231 54.9876 52.2462 53.2676 51.634 50.8595H67.6884C67.0081 53.2676 64.8313 54.9876 62.3143 54.9876ZM68.5047 49.4834H50.8177C50.4095 49.4834 50.1374 49.2082 50.1374 48.7954C50.1374 48.3826 50.4095 48.1074 50.8177 48.1074H68.5047C68.9129 48.1074 69.185 48.3826 69.185 48.7954C69.185 49.1394 68.8449 49.4834 68.5047 49.4834Z" fill="#E67285"/>
<path d="M32.9264 25.2654C32.3142 22.0317 29.457 19.6924 26.1917 19.6924H20.8176C17.5523 19.6924 14.6951 22.1005 14.0829 25.2654C13.2665 25.5406 12.6543 26.2974 12.6543 27.2606C12.6543 27.811 12.8584 28.2927 13.1985 28.6367C12.8584 28.9807 12.6543 29.4623 12.6543 30.0127C12.6543 30.9759 13.2665 31.7328 14.0829 32.008C14.6951 35.2417 17.5523 37.5809 20.8176 37.5809H26.1917C29.457 37.5809 32.3142 35.1729 32.9264 32.008C33.7427 31.7328 34.355 30.9759 34.355 30.0127C34.355 29.4623 34.1509 28.9807 33.8108 28.6367C34.1509 28.2927 34.355 27.811 34.355 27.2606C34.355 26.2974 33.7427 25.4718 32.9264 25.2654ZM20.8176 20.9996H26.1917C28.7087 20.9996 30.8856 22.7197 31.4978 25.1278H31.2257L31.0897 24.9901C30.7495 24.6461 30.2733 24.4397 29.7972 24.4397H29.389C28.9128 24.4397 28.4366 24.6461 28.0965 24.9901C28.0284 25.059 27.8924 25.1278 27.7563 25.1278H27.3482C27.2121 25.1278 27.0761 25.059 27.008 24.9901C26.6679 24.6461 26.1917 24.4397 25.7155 24.4397H25.3074C24.8312 24.4397 24.355 24.6461 24.0148 24.9901C23.9468 25.059 23.8108 25.1278 23.6747 25.1278H23.2665C23.1305 25.1278 22.9944 25.059 22.9264 24.9901C22.5863 24.6461 22.1101 24.4397 21.6339 24.4397H21.2257C20.7495 24.4397 20.2733 24.6461 19.9332 24.9901C19.8652 25.059 19.7291 25.1278 19.5931 25.1278H19.1849C19.0489 25.1278 18.9128 25.059 18.8448 24.9901C18.5046 24.6461 18.0284 24.4397 17.5523 24.4397H17.1441C16.6679 24.4397 16.1917 24.6461 15.8516 24.9901L15.7155 25.1278H15.4434C16.1237 22.7197 18.3006 20.9996 20.8176 20.9996ZM14.6271 26.5038H16.2597L16.804 25.9534C16.872 25.8846 17.008 25.8158 17.1441 25.8158H17.5523C17.6883 25.8158 17.8244 25.8846 17.8924 25.9534C18.2325 26.2974 18.7087 26.5038 19.1849 26.5038H19.5931C20.0693 26.5038 20.5455 26.2974 20.8856 25.9534C20.9536 25.8846 21.0897 25.8158 21.2257 25.8158H21.6339C21.7699 25.8158 21.906 25.8846 21.974 25.9534C22.3142 26.2974 22.7904 26.5038 23.2665 26.5038H23.6747C24.1509 26.5038 24.6271 26.2974 24.9672 25.9534C25.0352 25.8846 25.1713 25.8158 25.3074 25.8158H25.7155C25.8516 25.8158 25.9876 25.8846 26.0557 25.9534C26.3958 26.2974 26.872 26.5038 27.3482 26.5038H27.7563C28.2325 26.5038 28.7087 26.2974 29.0489 25.9534C29.1169 25.8846 29.2529 25.8158 29.389 25.8158H29.7972C29.9332 25.8158 30.0693 25.8846 30.1373 25.9534L30.6815 26.5038H32.3142C32.7223 26.5038 32.9944 26.779 32.9944 27.1918C32.9944 27.6046 32.7223 27.8798 32.3142 27.8798H14.6271C14.2189 27.8798 13.9468 27.6046 13.9468 27.1918C13.9468 26.779 14.287 26.5038 14.6271 26.5038ZM26.1917 36.1361H20.8176C18.3006 36.1361 16.1237 34.416 15.5114 32.008H31.5659C30.8176 34.416 28.7087 36.1361 26.1917 36.1361ZM32.3142 30.6319H14.6271C14.2189 30.6319 13.9468 30.3567 13.9468 29.9439C13.9468 29.5311 14.2189 29.2559 14.6271 29.2559H32.3142C32.7223 29.2559 32.9944 29.5311 32.9944 29.9439C32.9944 30.3567 32.7223 30.6319 32.3142 30.6319Z" fill="#E67285"/>
<path d="M57.0079 25.2654C56.3957 22.0317 53.5386 19.6924 50.2733 19.6924H44.8991C41.6338 19.6924 38.7767 22.1005 38.1644 25.2654C37.3481 25.5406 36.7358 26.2974 36.7358 27.2606C36.7358 27.811 36.9399 28.2927 37.2801 28.6367C36.9399 28.9807 36.7358 29.4623 36.7358 30.0127C36.7358 30.9759 37.3481 31.7328 38.1644 32.008C38.7767 35.2417 41.6338 37.5809 44.8991 37.5809H50.2733C53.5386 37.5809 56.3957 35.1729 57.0079 32.008C57.8243 31.7328 58.4365 30.9759 58.4365 30.0127C58.4365 29.4623 58.2324 28.9807 57.8923 28.6367C58.2324 28.2927 58.4365 27.811 58.4365 27.2606C58.4365 26.2974 57.8243 25.4718 57.0079 25.2654ZM44.8991 20.9996H50.2733C52.7903 20.9996 54.9671 22.7197 55.5794 25.1278H55.3073L55.1712 24.9901C54.8311 24.6461 54.3549 24.4397 53.8787 24.4397H53.4705C52.9943 24.4397 52.5182 24.6461 52.178 24.9901C52.11 25.059 51.9739 25.1278 51.8379 25.1278H51.4297C51.2937 25.1278 51.1576 25.059 51.0896 24.9901C50.7494 24.6461 50.2733 24.4397 49.7971 24.4397H49.3889C48.9127 24.4397 48.4365 24.6461 48.0964 24.9901C48.0284 25.059 47.8923 25.1278 47.7562 25.1278H47.3481C47.212 25.1278 47.076 25.059 47.0079 24.9901C46.6678 24.6461 46.1916 24.4397 45.7154 24.4397H45.3073C44.8311 24.4397 44.3549 24.6461 44.0148 24.9901C43.9467 25.059 43.8107 25.1278 43.6746 25.1278H43.2665C43.1304 25.1278 42.9943 25.059 42.9263 24.9901C42.5862 24.6461 42.11 24.4397 41.6338 24.4397H41.2256C40.7494 24.4397 40.2733 24.6461 39.9331 24.9901L39.7971 25.1278H39.525C40.2052 22.7197 42.3821 20.9996 44.8991 20.9996ZM38.7086 26.5038H40.3413L40.8855 25.9534C40.9535 25.8846 41.0896 25.8158 41.2256 25.8158H41.6338C41.7699 25.8158 41.9059 25.8846 41.9739 25.9534C42.3141 26.2974 42.7903 26.5038 43.2665 26.5038H43.6746C44.1508 26.5038 44.627 26.2974 44.9671 25.9534C45.0352 25.8846 45.1712 25.8158 45.3073 25.8158H45.7154C45.8515 25.8158 45.9875 25.8846 46.0556 25.9534C46.3957 26.2974 46.8719 26.5038 47.3481 26.5038H47.7562C48.2324 26.5038 48.7086 26.2974 49.0488 25.9534C49.1168 25.8846 49.2528 25.8158 49.3889 25.8158H49.7971C49.9331 25.8158 50.0692 25.8846 50.1372 25.9534C50.4773 26.2974 50.9535 26.5038 51.4297 26.5038H51.8379C52.3141 26.5038 52.7903 26.2974 53.1304 25.9534C53.1984 25.8846 53.3345 25.8158 53.4705 25.8158H53.8787C54.0147 25.8158 54.1508 25.8846 54.2188 25.9534L54.763 26.5038H56.3957C56.8039 26.5038 57.076 26.779 57.076 27.1918C57.076 27.6046 56.8039 27.8798 56.3957 27.8798H38.7086C38.3005 27.8798 38.0284 27.6046 38.0284 27.1918C38.0284 26.779 38.3685 26.5038 38.7086 26.5038ZM50.2733 36.1361H44.8991C42.3821 36.1361 40.2052 34.416 39.593 32.008H55.6474C54.9671 34.416 52.7903 36.1361 50.2733 36.1361ZM56.3957 30.6319H38.7086C38.3005 30.6319 38.0284 30.3567 38.0284 29.9439C38.0284 29.5311 38.3005 29.2559 38.7086 29.2559H56.3957C56.8039 29.2559 57.076 29.5311 57.076 29.9439C57.076 30.3567 56.8039 30.6319 56.3957 30.6319Z" fill="#E67285"/>
</svg>
