<svg width="57" height="53" viewBox="0 0 57 53" fill="none" xmlns="http://www.w3.org/2000/svg">
<path d="M54.2521 37.6573C53.4778 33.5926 49.897 30.6892 45.7354 30.6892H38.9609C34.7994 30.6892 31.2185 33.6894 30.4443 37.6573C29.3797 37.9477 28.6055 38.9155 28.6055 40.0768C28.6055 40.7543 28.8958 41.335 29.2829 41.8189C28.8958 42.3028 28.6055 42.8834 28.6055 43.5609C28.6055 44.7222 29.3797 45.69 30.4443 45.9804C31.2185 50.0451 34.7994 52.9485 38.9609 52.9485H45.7354C49.897 52.9485 53.4778 49.9483 54.2521 45.9804C55.3166 45.69 56.0909 44.7222 56.0909 43.5609C56.0909 42.8834 55.8005 42.3028 55.4134 41.8189C55.8005 41.335 56.0909 40.7543 56.0909 40.0768C56.0909 39.0122 55.3166 37.9477 54.2521 37.6573ZM38.9609 32.4312H45.7354C48.9292 32.4312 51.639 34.5604 52.51 37.5606H52.2197L52.0261 37.367C51.5422 36.8831 50.9615 36.6895 50.3809 36.6895H49.897C49.3163 36.6895 48.7356 36.8831 48.2517 37.367C48.1549 37.4638 47.9614 37.5606 47.8646 37.5606H47.3807C47.1871 37.5606 47.0904 37.4638 46.9936 37.367C46.5097 36.8831 45.929 36.6895 45.3483 36.6895H44.8644C44.2838 36.6895 43.7031 36.8831 43.2192 37.367C43.1224 37.4638 42.9288 37.5606 42.8321 37.5606H42.3482C42.1546 37.5606 42.0578 37.4638 41.961 37.367C41.4772 36.8831 40.8965 36.6895 40.3158 36.6895H39.8319C39.2512 36.6895 38.6705 36.8831 38.1866 37.367C38.0899 37.4638 37.8963 37.5606 37.7995 37.5606H37.3156C37.1221 37.5606 37.0253 37.4638 36.9285 37.367C36.4446 36.8831 35.8639 36.6895 35.2833 36.6895H34.7994C34.2187 36.6895 33.638 36.8831 33.1541 37.367L32.5734 37.5606H32.2831C33.0573 34.5604 35.7672 32.4312 38.9609 32.4312ZM31.2185 39.3026H33.2509L33.9283 38.6251C34.0251 38.5284 34.2187 38.4316 34.3155 38.4316H34.7994C34.9929 38.4316 35.0897 38.5284 35.1865 38.6251C35.6704 39.109 36.2511 39.3026 36.8317 39.3026H37.4124C37.9931 39.3026 38.5738 39.109 39.0577 38.6251C39.1544 38.5284 39.348 38.4316 39.4448 38.4316H39.9287C40.1222 38.4316 40.219 38.5284 40.3158 38.6251C40.7997 39.109 41.3804 39.3026 41.961 39.3026H42.4449C43.0256 39.3026 43.6063 39.109 44.0902 38.6251C44.187 38.5284 44.3805 38.4316 44.4773 38.4316H45.1548C45.3483 38.4316 45.4451 38.5284 45.5419 38.6251C46.0258 39.109 46.6065 39.3026 47.1871 39.3026H47.671C48.2517 39.3026 48.8324 39.109 49.3163 38.6251C49.4131 38.5284 49.6066 38.4316 49.7034 38.4316H50.1873C50.3809 38.4316 50.4776 38.5284 50.5744 38.6251L51.2519 39.3026H53.2843C53.7682 39.3026 54.1553 39.6897 54.1553 40.1736C54.1553 40.6575 53.7682 41.0446 53.2843 41.0446H31.2185C30.7346 41.0446 30.3475 40.6575 30.3475 40.1736C30.3475 39.6897 30.7346 39.3026 31.2185 39.3026ZM45.7354 51.3033H38.9609C35.7672 51.3033 33.0573 49.1741 32.1863 46.1739H52.4132C51.639 49.1741 48.9292 51.3033 45.7354 51.3033ZM53.4778 44.4319H31.2185C30.7346 44.4319 30.3475 44.0448 30.3475 43.5609C30.3475 43.077 30.7346 42.6899 31.2185 42.6899H53.5746C54.0585 42.6899 54.4456 43.077 54.4456 43.5609C54.3488 44.0448 53.9617 44.4319 53.4778 44.4319Z" fill="#57B6BB"/>
<path d="M29.4765 46.4042H25.9925V21.4438H37.3157V29.8549C37.606 29.8549 37.8964 29.8549 38.1867 29.8549C38.5738 29.8549 38.8641 29.8549 39.1545 29.9517V21.5406H40.9933C41.4772 21.5406 41.9611 21.0568 41.9611 20.5729V11.9594C41.9611 11.4756 41.4772 10.9917 40.9933 10.9917H30.2508C31.1218 10.0239 31.7025 8.66892 31.7025 7.21723C31.7025 4.12028 29.1862 1.60403 26.0892 1.60403C24.2504 1.60403 22.6052 2.47503 21.6374 3.82994C20.5728 1.89435 18.5404 0.63623 16.2177 0.63623C12.8305 0.63623 10.1206 3.34605 10.1206 6.73333C10.1206 8.37858 10.7981 9.8303 11.8627 10.9917H1.60403C1.12013 10.9917 0.63623 11.4756 0.63623 11.9594V20.3793C0.63623 20.8632 1.12013 21.3471 1.60403 21.3471H3.44284V47.2752C3.44284 47.7591 3.92674 48.243 4.41063 48.243H30.154C29.8637 47.6623 29.6701 47.0817 29.4765 46.4042ZM40.1223 12.9272V19.5082H25.9925V12.9272H40.1223ZM22.3148 7.31404C22.3148 5.18489 23.9601 3.53962 26.0892 3.53962C28.2184 3.53962 29.8637 5.18489 29.8637 7.31404C29.8637 9.44319 28.2184 11.0884 26.0892 11.0884H22.3148V7.31404ZM16.121 2.57182C18.4437 2.57182 20.3793 4.41066 20.3793 6.83015V11.0884H16.121C13.7982 11.0884 11.8627 9.24963 11.8627 6.83015C11.9594 4.50744 13.7982 2.57182 16.121 2.57182ZM16.6049 46.4042H5.37843V21.4438H16.7016V46.4042H16.6049ZM16.6049 19.5082H2.47504V12.9272H16.6049V19.5082ZM24.1537 46.4042H18.5404V21.4438H24.1537V46.4042ZM24.1537 19.5082H18.5404V12.9272H24.1537V19.5082Z" fill="#57B6BB"/>
</svg>
