<svg width="57" height="58" viewBox="0 0 57 58" fill="none" xmlns="http://www.w3.org/2000/svg">
<path d="M56.9105 28.8631V21.555H44.9435C45.2175 21.281 45.4916 21.0069 45.6743 20.6415H47.3186C49.6024 20.6415 51.4294 18.8145 51.4294 16.5307C51.4294 14.2469 49.6024 12.4199 47.3186 12.4199H46.8618H45.9483H34.0727V16.9875C34.0727 18.8145 34.8035 20.3675 35.9911 21.555H25.8511V28.8631H27.6781V27.0361H28.957L30.784 30.6902H32.2457V53.528C32.2457 54.5328 31.4235 55.355 30.4186 55.355C29.4138 55.355 28.5916 54.5328 28.5916 53.528H26.7646C26.7646 55.5377 28.4089 57.182 30.4186 57.182C32.4284 57.182 34.0727 55.5377 34.0727 53.528V40.7388H48.6889V53.528C48.6889 55.5377 50.3332 57.182 52.3429 57.182C54.3526 57.182 55.997 55.5377 55.997 53.528H54.1699C54.1699 54.5328 53.3478 55.355 52.3429 55.355C51.3381 55.355 50.5159 54.5328 50.5159 53.528V30.6902H51.9775L53.8045 27.0361H55.0835V28.8631H56.9105ZM47.3186 14.2469C48.5975 14.2469 49.6024 15.2518 49.6024 16.5307C49.6024 17.8096 48.5975 18.8145 47.3186 18.8145H46.5878C46.7705 18.2664 46.8618 17.6269 46.8618 16.9875V14.2469H47.3186ZM35.8997 16.9875V14.2469H45.0348V16.9875C45.0348 19.5453 43.0251 21.555 40.4673 21.555C37.9094 21.555 35.8997 19.5453 35.8997 16.9875ZM34.0727 38.9118V37.0847H48.6889V38.9118H34.0727ZM48.6889 35.2577H34.0727V30.6902H48.6889V35.2577ZM50.8813 28.8631H31.8803L30.9667 27.0361H51.7948L50.8813 28.8631ZM27.6781 25.2091V23.3821H55.0835V25.2091H27.6781Z" fill="#8A8CDC"/>
<path d="M22.1967 54.4415C22.1967 54.9896 21.8313 55.355 21.2832 55.355C20.7351 55.355 20.3697 54.9896 20.3697 54.4415V39.8253H21.2832C22.2881 39.8253 23.1103 39.0031 23.1103 37.9983V36.1712C23.1103 35.1664 22.2881 34.3442 21.2832 34.3442H6.66704L5.75353 15.1605C5.75353 13.6075 4.56597 12.4199 3.013 12.4199C1.46003 12.4199 0.272461 13.6075 0.272461 15.1605V16.074H2.09948V15.1605C2.09948 14.6123 2.46489 14.2469 3.013 14.2469C3.5611 14.2469 3.92651 14.6123 3.92651 15.1605L4.84002 35.2577V39.8253H6.66704V54.4415C6.66704 54.9896 6.30164 55.355 5.75353 55.355C5.20542 55.355 4.84002 54.9896 4.84002 54.4415V53.528H3.013V54.4415C3.013 55.9944 4.20056 57.182 5.75353 57.182C7.3065 57.182 8.49407 55.9944 8.49407 54.4415V39.8253H18.5427V54.4415C18.5427 55.9944 19.7303 57.182 21.2832 57.182C22.8362 57.182 24.0238 55.9944 24.0238 54.4415V53.528H22.1967V54.4415ZM6.66704 36.1712H21.2832V37.9983H6.66704V36.1712Z" fill="#8A8CDC"/>
<path d="M36.8134 5.65997C36.2653 6.20808 35.8999 7.03024 35.8999 7.8524C35.8999 8.67456 36.2653 9.49672 36.8134 10.0448L38.001 11.2324L39.2799 9.95348L38.0923 8.76591C37.8183 8.49186 37.7269 8.2178 37.7269 7.8524C37.7269 7.487 37.8183 7.21294 38.0923 6.93889L38.6404 6.39078C39.1885 5.84267 39.5539 5.02051 39.5539 4.19835C39.5539 3.37619 39.1885 2.55403 38.6404 2.00592L37.4529 0.818359L36.174 2.09728L37.3615 3.28484C37.6356 3.55889 37.7269 3.83295 37.7269 4.19835C37.7269 4.56376 37.6356 4.83781 37.3615 5.11186L36.8134 5.65997Z" fill="#8A8CDC"/>
<path d="M42.2944 5.65997C41.7463 6.20808 41.3809 7.03024 41.3809 7.8524C41.3809 8.67456 41.7463 9.49672 42.2944 10.0448L43.4819 11.2324L44.7609 9.95348L43.5733 8.76591C43.2992 8.49186 43.2079 8.2178 43.2079 7.8524C43.2079 7.487 43.2992 7.21294 43.5733 6.93889L44.1214 6.39078C44.6695 5.84267 45.0349 5.02051 45.0349 4.19835C45.0349 3.37619 44.6695 2.55403 44.1214 2.00592L42.9338 0.818359L41.6549 2.09728L42.8425 3.28484C43.1165 3.55889 43.2079 3.83295 43.2079 4.19835C43.2079 4.56376 43.1165 4.83781 42.8425 5.11186L42.2944 5.65997Z" fill="#8A8CDC"/>
</svg>
