<svg width="48" height="64" viewBox="0 0 48 64" fill="none" xmlns="http://www.w3.org/2000/svg">
<path d="M2.33333 60.6048L3.25 63.2361C3.41667 63.7454 4 64 5 64H43C44 64 44.5833 63.7454 44.75 63.2361L45.6667 60.6048C46.9167 60.6048 48 59.5013 48 58.2281V57.0398C48 55.7666 46.9167 54.6631 45.6667 54.6631H44.5V29.9629C44.5 29.4536 44.1667 29.1141 43.6667 29.1141H41.6667V12.6472C41.6667 12.1379 41.3333 11.7984 40.8333 11.7984H34.9167V0.848806C34.9167 0.339523 34.5833 0 34.0833 0H13.9167C13.4167 0 13.0833 0.339523 13.0833 0.848806V11.7984H7.16667C6.66667 11.7984 6.33333 12.1379 6.33333 12.6472V29.1989H4.33333C3.83333 29.1989 3.5 29.5385 3.5 30.0477V54.748H2.33333C1.08333 54.748 0 55.8515 0 57.1247V58.2281C0.0833333 59.5013 1.08333 60.6048 2.33333 60.6048ZM43.0833 62.3024H5C4.91667 62.3024 4.75 62.3024 4.66667 62.3024L4.08333 60.6048H43.9167L43.3333 62.3024C43.25 62.3024 43.1667 62.3024 43.0833 62.3024ZM35.8333 43.8833C35.3333 43.8833 35 44.2228 35 44.7321C35 46.5146 33.5833 47.8727 31.9167 47.8727C30.1667 47.8727 28.8333 46.4297 28.8333 44.7321C28.8333 44.2228 28.5 43.8833 28 43.8833C27.5 43.8833 27.1667 44.2228 27.1667 44.7321C27.1667 46.5146 25.75 47.8727 24.0833 47.8727C22.4167 47.8727 21 46.4297 21 44.7321C21 44.2228 20.6667 43.8833 20.1667 43.8833C19.6667 43.8833 19.3333 44.2228 19.3333 44.7321C19.3333 46.5146 17.9167 47.8727 16.25 47.8727C14.5 47.8727 13.1667 46.4297 13.1667 44.7321C13.1667 44.2228 12.8333 43.8833 12.3333 43.8833C11.8333 43.8833 11.5 44.2228 11.5 44.7321C11.5 46.5146 10.0833 47.8727 8.41667 47.8727C6.66667 47.8727 5.33333 46.4297 5.33333 44.7321V40.1485C6.16667 40.9125 7.25 41.3369 8.41667 41.3369C10.0833 41.3369 11.5 40.4881 12.3333 39.2148C13.1667 40.4881 14.6667 41.3369 16.25 41.3369C17.9167 41.3369 19.3333 40.4881 20.1667 39.2148C21 40.4881 22.5 41.3369 24.0833 41.3369C25.6667 41.3369 27.1667 40.4881 28 39.2148C28.8333 40.4881 30.3333 41.3369 31.9167 41.3369C33.5833 41.3369 35 40.4881 35.8333 39.2148C36.6667 40.4881 38.1667 41.3369 39.75 41.3369C40.9167 41.3369 42 40.9125 42.8333 40.1485V44.817C42.8333 46.5995 41.4167 47.9576 39.75 47.9576C38 47.9576 36.6667 46.5146 36.6667 44.817C36.6667 44.3077 36.3333 43.8833 35.8333 43.8833ZM33.3333 1.69761V5.2626C33.3333 6.70557 32.1667 7.80902 30.8333 7.80902C29.5 7.80902 28.3333 6.62069 28.3333 5.2626C28.3333 4.75332 28 4.41379 27.5 4.41379C27 4.41379 26.6667 4.75332 26.6667 5.2626C26.6667 6.70557 25.5 7.80902 24.1667 7.80902C22.75 7.80902 21.6667 6.62069 21.6667 5.2626C21.6667 4.75332 21.3333 4.41379 20.8333 4.41379C20.3333 4.41379 20 4.75332 20 5.2626C20 6.70557 18.8333 7.80902 17.5 7.80902C16.1667 7.80902 15 6.62069 15 5.2626V1.69761H33.3333ZM14.75 8.65783C15.4167 9.25199 16.3333 9.59151 17.25 9.59151C18.6667 9.59151 19.8333 8.91247 20.5833 7.80902C21.3333 8.82759 22.5833 9.59151 23.9167 9.59151C25.3333 9.59151 26.5 8.91247 27.25 7.80902C28 8.82759 29.25 9.59151 30.5833 9.59151C31.5 9.59151 32.4167 9.25199 33.0833 8.74271V11.8833H14.75V8.65783ZM40 13.496V19.8621C40 21.305 38.8333 22.4085 37.5 22.4085C36.1667 22.4085 35 21.2202 35 19.8621C35 19.3528 34.6667 19.0133 34.1667 19.0133C33.6667 19.0133 33.3333 19.3528 33.3333 19.8621C33.3333 21.305 32.1667 22.4085 30.8333 22.4085C29.5 22.4085 28.3333 21.2202 28.3333 19.8621C28.3333 19.3528 28 19.0133 27.5 19.0133C27 19.0133 26.6667 19.3528 26.6667 19.8621C26.6667 21.305 25.5 22.4085 24.1667 22.4085C22.75 22.4085 21.6667 21.2202 21.6667 19.8621C21.6667 19.3528 21.3333 19.0133 20.8333 19.0133C20.3333 19.0133 20 19.3528 20 19.8621C20 21.305 18.8333 22.4085 17.5 22.4085C16.1667 22.4085 15 21.2202 15 19.8621C15 19.3528 14.6667 19.0133 14.1667 19.0133C13.6667 19.0133 13.3333 19.3528 13.3333 19.8621C13.3333 21.305 12.1667 22.4085 10.8333 22.4085C9.5 22.4085 8.33333 21.2202 8.33333 19.8621V13.5809H40V13.496ZM8.08333 23.1724C8.75 23.7666 9.66667 24.1061 10.5833 24.1061C12 24.1061 13.1667 23.4271 13.9167 22.3236C14.6667 23.3422 15.9167 24.1061 17.25 24.1061C18.6667 24.1061 19.8333 23.4271 20.5833 22.3236C21.3333 23.3422 22.5833 24.1061 23.9167 24.1061C25.3333 24.1061 26.5 23.4271 27.25 22.3236C28 23.3422 29.25 24.1061 30.5833 24.1061C31.9167 24.1061 33.1667 23.4271 33.9167 22.3236C34.6667 23.3422 35.9167 24.1061 37.25 24.1061C38.1667 24.1061 39.0833 23.7666 39.75 23.2573V29.1989H8.08333V23.1724ZM42.9167 30.8117V36.4138C42.9167 38.1963 41.5 39.5544 39.8333 39.5544C38.0833 39.5544 36.75 38.1114 36.75 36.4138C36.75 35.9045 36.4167 35.565 35.9167 35.565C35.4167 35.565 35.0833 35.9045 35.0833 36.4138C35.0833 38.1963 33.6667 39.5544 32 39.5544C30.25 39.5544 28.9167 38.1114 28.9167 36.4138C28.9167 35.9045 28.5833 35.565 28.0833 35.565C27.5833 35.565 27.25 35.9045 27.25 36.4138C27.25 38.1963 25.8333 39.5544 24.1667 39.5544C22.5 39.5544 21.0833 38.1114 21.0833 36.4138C21.0833 35.9045 20.75 35.565 20.25 35.565C19.75 35.565 19.4167 35.9045 19.4167 36.4138C19.4167 38.1963 18 39.5544 16.3333 39.5544C14.5833 39.5544 13.25 38.1114 13.25 36.4138C13.25 35.9045 12.9167 35.565 12.4167 35.565C11.9167 35.565 11.5833 35.9045 11.5833 36.4138C11.5833 38.1963 10.1667 39.5544 8.5 39.5544C6.75 39.5544 5.41667 38.1114 5.41667 36.4138V30.8966H42.9167V30.8117ZM5.16667 48.382C6 49.1459 7.08333 49.5703 8.25 49.5703C9.91667 49.5703 11.3333 48.7215 12.1667 47.4483C13 48.7215 14.5 49.5703 16.0833 49.5703C17.75 49.5703 19.1667 48.7215 20 47.4483C20.8333 48.7215 22.3333 49.5703 23.9167 49.5703C25.5 49.5703 27 48.7215 27.8333 47.4483C28.6667 48.7215 30.1667 49.5703 31.75 49.5703C33.4167 49.5703 34.8333 48.7215 35.6667 47.4483C36.5 48.7215 38 49.5703 39.5833 49.5703C40.75 49.5703 41.8333 49.1459 42.6667 48.382V54.6631H5.16667V48.382ZM1.75 57.1247C1.75 56.7851 2.08333 56.4456 2.41667 56.4456H45.75C46.0833 56.4456 46.4167 56.7851 46.4167 57.1247V58.2281C46.4167 58.5676 46.0833 58.9072 45.75 58.9072H2.41667C2.08333 58.9072 1.75 58.5676 1.75 58.2281V57.1247Z" fill="#E58383"/>
</svg>
